<?xml version="1.0" encoding="utf-8"?>
<!-- Generator: Adobe Illustrator 23.0.0, SVG Export Plug-In . SVG Version: 6.00 Build 0)  -->
<svg version="1.1" baseProfile="tiny" id="Слой_1"
	 xmlns="http://www.w3.org/2000/svg" xmlns:xlink="http://www.w3.org/1999/xlink" x="0px" y="0px" viewBox="0 0 191.5 206.2"
	 xml:space="preserve">
<g>
	<path d="M38,199.9c0.7,0.4,1.7-0.1,1.6-1c-0.5-12.5,0.5-35,6.9-53.9c8-23.6,16.1-33.8,32.7-51.7c14.4-15.5,23.6-23,25.5-24.7
		c4.1-3.8,5.2-4.5,6-6.3c0.4-1.1-0.6-1.9-1.1-2c-9.8-1.1-18-6.8-19.6-7.8c-4.5-2.8-10.6,2.6-15.8-5.1c-0.5-0.7-2.6,0.2-3-1
		c-0.8-2.5,3.4-5.5,5.9-6.9c2.5-1.4,7.1-1.7,12.2-1.7c5.1-0.1,23.2-5.5,25.5-6.3c2.3-0.8,3.2-2.3,5.8-3.7c1.2-0.7,3.6,0.3,4.6,0.4
		c2.1,0,5.2-1.5,6.3-3.2c0.7-1.1,2-2.3,2.3-4.2c0.8-4.5-0.8-4.9,0-8.3c1.1-4.4,4.9-6.6,9.3-4.6c3.3,1.5,3.9,5.9,2.4,8.6
		c-2.2,4.1-3.4,4.9-4.7,7.9c-0.5,1.3-0.6,3.7,0.7,4.4c1.7,1,3.9-1.4,5.5-5.2c0.5-1.3,0.2-4.7,1.5-6.8c1.2-1.9,3.8-3.8,6.7-4
		c0.1,0,0.2-0.2,0.1-0.3C137.7,1,115.5-3.4,93.2,2.8C35.9,18.8-9.7,87.5,1.8,147.9C6,170.2,19.6,189.1,38,199.9z"/>
	<path d="M147.6,37.2c-0.4,1.3,0.6,1.6,1.8,1.4c2.1-0.3,4.8-1.6,8.4-1c4.9,0.8,12,4.6,13.2,5.4c0.1,0.1,0.1,0.2,0,0.3
		c-4.2,4.6-7.5,6.4-13.4,7.6c-6,1.2-9.4-1.4-11-2c-2.2-0.8-4,1.3-5.1,3.7c-3.6,7.9-6.1,10.6-31.4,37.9
		c-21,22.6-53.9,86.9-17.1,114.1c2.1,1.5,4.8,2,7.3,1.2c52.1-15.6,94-74.7,91.2-130.7c-1.1-22.8-11.8-42.8-27.6-56.3
		c-0.4-0.3-1-0.9-1.1-0.7c-0.1,0.1,0.4,0.7,0.4,1.6c0,3.8-0.7,5-6.3,8.8C152.6,31.2,149.1,32.7,147.6,37.2z"/>
</g>
</svg>
